<svg id="visual" viewBox="0 0 900 600" width="900" height="600" xmlns="http://www.w3.org/2000/svg" xmlns:xlink="http://www.w3.org/1999/xlink" version="1.1"><path d="M0 427L53 387L106 406L159 417L212 389L265 417L318 409L371 388L424 418L476 434L529 402L582 426L635 377L688 390L741 377L794 371L847 434L900 391L900 601L847 601L794 601L741 601L688 601L635 601L582 601L529 601L476 601L424 601L371 601L318 601L265 601L212 601L159 601L106 601L53 601L0 601Z" fill="#ffffff"></path><path d="M0 432L53 455L106 440L159 445L212 417L265 397L318 449L371 440L424 424L476 429L529 408L582 448L635 453L688 459L741 411L794 431L847 408L900 400L900 601L847 601L794 601L741 601L688 601L635 601L582 601L529 601L476 601L424 601L371 601L318 601L265 601L212 601L159 601L106 601L53 601L0 601Z" fill="#dce3e7"></path><path d="M0 480L53 421L106 431L159 456L212 479L265 428L318 446L371 456L424 438L476 475L529 426L582 451L635 433L688 438L741 433L794 440L847 465L900 479L900 601L847 601L794 601L741 601L688 601L635 601L582 601L529 601L476 601L424 601L371 601L318 601L265 601L212 601L159 601L106 601L53 601L0 601Z" fill="#bac8cf"></path><path d="M0 451L53 502L106 500L159 487L212 462L265 471L318 475L371 461L424 449L476 465L529 502L582 490L635 469L688 452L741 489L794 492L847 503L900 472L900 601L847 601L794 601L741 601L688 601L635 601L582 601L529 601L476 601L424 601L371 601L318 601L265 601L212 601L159 601L106 601L53 601L0 601Z" fill="#99adb7"></path><path d="M0 486L53 505L106 484L159 521L212 525L265 487L318 506L371 480L424 492L476 507L529 478L582 514L635 490L688 526L741 513L794 498L847 513L900 489L900 601L847 601L794 601L741 601L688 601L635 601L582 601L529 601L476 601L424 601L371 601L318 601L265 601L212 601L159 601L106 601L53 601L0 601Z" fill="#7893a1"></path><path d="M0 521L53 537L106 513L159 518L212 511L265 544L318 530L371 501L424 537L476 514L529 515L582 544L635 527L688 537L741 541L794 504L847 520L900 542L900 601L847 601L794 601L741 601L688 601L635 601L582 601L529 601L476 601L424 601L371 601L318 601L265 601L212 601L159 601L106 601L53 601L0 601Z" fill="#567a8a"></path><path d="M0 531L53 556L106 544L159 541L212 537L265 561L318 558L371 530L424 562L476 559L529 571L582 569L635 542L688 558L741 528L794 568L847 529L900 526L900 601L847 601L794 601L741 601L688 601L635 601L582 601L529 601L476 601L424 601L371 601L318 601L265 601L212 601L159 601L106 601L53 601L0 601Z" fill="#346274"></path><path d="M0 567L53 552L106 556L159 589L212 579L265 562L318 564L371 579L424 589L476 576L529 584L582 568L635 587L688 592L741 585L794 575L847 552L900 582L900 601L847 601L794 601L741 601L688 601L635 601L582 601L529 601L476 601L424 601L371 601L318 601L265 601L212 601L159 601L106 601L53 601L0 601Z" fill="#004b5f"></path></svg>